<svg width="1024" height="768" viewBox="0 0 1024 768" fill="none" xmlns="http://www.w3.org/2000/svg">
<rect width="1024" height="768" fill="white"/>
<path d="M275.911 0.711114C254.386 5.35467 237.205 22.8409 230.798 43.6053C224.164 65.1164 230.869 87.6942 247.431 102.77C263.424 117.312 287.253 124.174 307.947 116.224C327.303 108.786 344.121 87.5733 334.777 66.368C326.884 48.4622 303.488 37.9947 285.212 45.8098C266.937 53.6249 258.055 75.4987 261.397 94.3858C265.621 118.215 288.775 131.364 309.945 138.027C335.588 146.148 365.461 147.342 386.468 166.03C403.029 180.764 411.15 203.719 409.5 225.643C408.746 236.629 405.263 247.254 399.367 256.555C392.846 266.645 381.717 275.285 369.444 276.466C355.79 277.781 345.977 267.307 344.988 254.158C343.915 239.701 352.676 227.065 361.003 216.092C376.91 195.143 397.269 174.286 423.694 167.829C447.097 162.14 475.243 168.583 487.652 190.862C501.717 216.121 491.705 246.265 476.793 268.551C468.7 280.64 459.079 291.669 449.607 302.684C439.979 313.884 430.265 325.028 421.163 336.683C403.94 358.784 388.914 383.04 382.436 410.588C376.356 436.43 378.169 464.22 392.512 487.111C405.838 508.444 427.356 523.499 450.24 533.148C478.827 545.237 509.902 549.988 540.196 555.776L637.362 574.35L683.954 583.253C684.956 583.445 685.376 581.909 684.38 581.71L588.38 563.356C557.148 557.39 525.696 552.107 494.677 545.109C467.065 538.873 439.367 529.792 417.017 511.822C407.118 503.865 398.414 494.315 392.092 483.25C385.306 471.163 381.45 457.652 380.836 443.804C377.742 383.566 422.357 337.408 458.432 294.82C475.612 274.524 493.276 251.925 495.637 224.42C496.668 212.53 494.784 200.1 488.818 189.639C483.321 180.2 474.826 172.871 464.683 168.818C442.795 159.822 418.14 164.708 398.67 177.102C387.79 184.05 378.311 192.996 369.849 202.667C361.209 212.551 352.171 223.41 346.923 235.534C342.457 245.86 341.44 258.581 348.025 268.295C353.913 276.971 364.338 279.716 374.201 277.234C395.684 271.829 408.092 250.076 410.716 229.412C413.312 208.917 407.317 187.193 393.92 171.378C376.853 151.26 350.215 146.432 325.86 140.644C302.791 135.168 274.468 125.931 265.06 101.618C257.543 82.1973 265.607 56.4622 285.163 47.5733C304.917 38.5778 331.84 52.5511 335.452 74.0907C339.79 99.904 311.588 118.251 288.796 117.988C266.005 117.724 243.719 103.054 234.325 82.2756C224.562 60.6436 231.417 35.0436 247.58 18.4462C255.356 10.3411 265.353 4.71517 276.316 2.27556C277.333 2.05511 276.892 0.519114 275.911 0.711114Z" fill="#D1ECFD"/>
</svg>
